# xmcd CD database file
#
# Track frame offsets:
#	300
#	14238
#	28604
#	42734
#	55636
#	71395
#	83410
#	97955
#	111594
#	122657
#	133899
#	147294
#	158257
#	170817
#	184316
#	196570
#	210026
#	224172
#	236648
#	251096
#	263792
#	279201
#	292117
#	305677
#	322146
#
# Disc length: 4481 seconds
#
# Revision: 0
# Processed by: cddbd v1.5.1PL0 Copyright (c) Steve Scherf et al.
# Submitted via: CDex 1.50
#
DISCID=7c117d19
DTITLE=D.Reinhardt, B.Smith, D.Ellington, S.Vaughan - Le Meilleur du Jazz  -  disk 3
DYEAR=2005
DGENRE=Jazz
TTITLE0=Blues clair
TTITLE1=Digo-Digo-Do
TTITLE2=Saint Louis Blues
TTITLE3=Polka dot rag
TTITLE4=Echoes of the jungle
TTITLE5=Hecklers hop
TTITLE6=Some of these days
TTITLE7=So, the bluebirds and the blackbirds got together
TTITLE8=Charlie two-step
TTITLE9=Minnie the moocher is dead
TTITLE10=Honeysuckle rose
TTITLE11=All got's chillun got rhythm
TTITLE12=Push out
TTITLE13=Hit that jive, Jack
TTITLE14=Mean to me
TTITLE15=The man I love
TTITLE16=Marcheta
TTITLE17=Dinah
TTITLE18=You'se a viper
TTITLE19=Heebie Jeebie
TTITLE20=Rocking chair
TTITLE21=Christmas swing
TTITLE22=Rocking'in rhythm
TTITLE23=Buddy bolden blues
TTITLE24=C'est si bon
EXTD=YEAR: 2005
EXTT0=
EXTT1=
EXTT2=
EXTT3=
EXTT4=
EXTT5=
EXTT6=
EXTT7=
EXTT8=
EXTT9=
EXTT10=
EXTT11=
EXTT12=
EXTT13=
EXTT14=
EXTT15=
EXTT16=
EXTT17=
EXTT18=
EXTT19=
EXTT20=
EXTT21=
EXTT22=
EXTT23=
EXTT24=
PLAYORDER=
